<?xml version="1.0" standalone="no"?>
<!DOCTYPE svg PUBLIC "-//W3C//DTD SVG 20010904//EN"
 "http://www.w3.org/TR/2001/REC-SVG-20010904/DTD/svg10.dtd">
<svg version="1.0" xmlns="http://www.w3.org/2000/svg"
 width="450.000000pt" height="450.000000pt" viewBox="0 0 450.000000 450.000000"
 preserveAspectRatio="xMidYMid meet">
<metadata>
Created by potrace 1.11, written by Peter Selinger 2001-2013
</metadata>
<g transform="translate(0.000000,450.000000) scale(0.100000,-0.100000)"
fill="#000000" stroke="none">
<path d="M203 4482 c-100 -35 -171 -115 -193 -216 -8 -36 -10 -624 -8 -2046
l3 -1995 21 -46 c31 -66 78 -114 142 -146 l57 -28 2025 0 2025 0 57 28 c64 32
111 80 142 146 l21 46 0 2025 0 2025 -28 57 c-32 64 -80 111 -146 142 l-46 21
-2010 2 c-1909 2 -2013 2 -2062 -15z m2767 -1038 c0 -3 -61 -99 -135 -214 -74
-115 -135 -211 -135 -214 0 -3 124 -7 276 -8 l276 -3 -412 -635 c-227 -349
-416 -643 -421 -652 -9 -17 0 -18 135 -18 l144 0 169 260 c92 143 171 260 175
260 3 0 91 -134 194 -297 103 -164 194 -308 202 -320 13 -21 4 -38 -164 -298
l-178 -275 -693 0 c-381 0 -693 3 -693 6 0 3 61 99 135 214 74 115 135 211
135 214 0 3 -124 7 -276 8 l-275 3 347 535 c408 629 494 764 494 774 0 3 -64
5 -142 4 l-143 -3 -170 -262 c-93 -145 -173 -263 -177 -263 -3 0 -91 134 -194
298 -103 163 -194 307 -202 319 -13 21 -4 38 164 298 l178 275 693 0 c381 0
693 -3 693 -6z"/>
<path d="M1601 3060 c-57 -88 -101 -163 -99 -168 9 -25 132 -212 138 -212 4 0
56 74 115 165 l107 165 281 0 282 0 67 105 67 105 -427 0 -428 0 -103 -160z"/>
<path d="M2495 2703 c-167 -251 -645 -995 -645 -1003 0 -7 50 -10 142 -8 l141
3 349 538 c191 295 348 542 348 547 0 6 -54 10 -138 10 l-139 0 -58 -87z"/>
<path d="M2925 1635 l-107 -165 -281 0 -282 0 -67 -105 -67 -105 427 0 428 0
103 160 c57 88 101 163 99 168 -9 25 -132 212 -138 212 -4 0 -56 -74 -115
-165z"/>
</g>
</svg>
